<svg width="101" height="101" viewBox="0 0 101 101" fill="none" xmlns="http://www.w3.org/2000/svg">
<path d="M68.1421 4.0165C58.3298 0.430213 47.6405 0.00757691 37.5757 2.80795C27.5108 5.60832 18.5759 11.491 12.0259 19.6298C5.47588 27.7687 1.63973 37.7548 1.05624 48.1856C0.472755 58.6165 3.17123 68.9681 8.77269 77.7867C14.3742 86.6053 22.5972 93.4477 32.2869 97.3532C41.9767 101.259 52.6464 102.031 62.7975 99.5612C72.9486 97.0916 82.0711 91.5044 88.8839 83.5842C95.6968 75.6641 99.8576 65.8089 100.782 55.4027L89.5187 54.4021C88.8033 62.4548 85.5835 70.0813 80.3114 76.2103C75.0393 82.3392 67.9799 86.6629 60.1245 88.5739C52.2691 90.485 44.0124 89.8875 36.514 86.8653C29.0157 83.8431 22.6523 78.548 18.3176 71.7238C13.983 64.8996 11.8948 56.8891 12.3463 48.8172C12.7978 40.7453 15.7664 33.0176 20.8351 26.7194C25.9038 20.4212 32.8181 15.8689 40.6067 13.7018C48.3954 11.5348 56.6672 11.8618 64.2604 14.6371L68.1421 4.0165Z" fill="#05A301"/>
</svg>
