<svg width="101" height="101" viewBox="0 0 101 101" fill="none" xmlns="http://www.w3.org/2000/svg">
<path d="M55.2745 1.09343C44.8664 0.191187 34.437 2.5718 25.4513 7.90093C16.4655 13.2301 9.37475 21.24 5.1748 30.8057C0.974857 40.3715 -0.123263 51.0126 2.03467 61.2345C4.1926 71.4563 9.49818 80.7455 17.2063 87.7974C24.9143 94.8493 34.6377 99.3096 45.0108 100.552C55.3838 101.794 65.8854 99.7561 75.0407 94.7238C84.1961 89.6915 91.5451 81.9179 96.0558 72.4947C100.566 63.0714 102.012 52.472 100.19 42.185L89.0555 44.1574C90.4657 52.118 89.347 60.3203 85.8564 67.6124C82.3658 74.9046 76.6788 80.9202 69.594 84.8144C62.5092 88.7086 54.3825 90.2857 46.3554 89.3244C38.3283 88.363 30.8039 84.9114 24.839 79.4544C18.8741 73.9973 14.7684 66.8089 13.0985 58.8988C11.4286 50.9886 12.2784 42.7541 15.5285 35.3516C18.7786 27.9492 24.2658 21.7508 31.2194 17.6268C38.173 13.5029 46.2437 11.6607 54.298 12.3589L55.2745 1.09343Z" fill="#D9D9D9"/>
</svg>
