<svg width="96" height="101" viewBox="0 0 96 101" fill="none" xmlns="http://www.w3.org/2000/svg">
<path d="M13.954 89.3768C21.9771 96.0681 31.8947 100.078 42.3138 100.844C52.7328 101.609 63.13 99.0922 72.0451 93.6457C80.9602 88.1992 87.9453 80.097 92.0195 70.4769C96.0936 60.8569 97.052 50.2024 94.7602 40.0097C92.4684 29.817 87.0415 20.5982 79.2415 13.648C71.4416 6.69783 61.6606 2.36544 51.2722 1.2593C40.8837 0.153143 30.4097 2.32881 21.3212 7.48072C12.2327 12.6326 4.98619 20.502 0.599491 29.9836L10.8621 34.7316C14.2567 27.3943 19.8643 21.3047 26.8975 17.3179C33.9306 13.3311 42.0358 11.6474 50.0749 12.5034C58.114 13.3594 65.683 16.712 71.7189 22.0904C77.7548 27.4687 81.9545 34.6027 83.728 42.4902C85.5015 50.3778 84.7598 58.6228 81.607 66.0672C78.4543 73.5116 73.0489 79.7815 66.15 83.9963C59.2511 88.2111 51.2052 90.159 43.1425 89.5665C35.0797 88.974 27.4051 85.8708 21.1964 80.6928L13.954 89.3768Z" fill="#D9D9D9"/>
</svg>
