<svg width="96" height="101" viewBox="0 0 96 101" fill="none" xmlns="http://www.w3.org/2000/svg">
<path d="M13.932 88.6904C21.9552 95.3817 31.8727 99.3917 42.2918 100.157C52.7109 100.923 63.1081 98.4058 72.0231 92.9593C80.9382 87.5128 87.9234 79.4106 91.9975 69.7905C96.0716 60.1705 97.0301 49.516 94.7383 39.3233C92.4464 29.1306 87.0195 19.9118 79.2196 12.9616C71.4197 6.01143 61.6386 1.67904 51.2502 0.572894C40.8617 -0.533258 30.3877 1.6424 21.2992 6.79432C12.2107 11.9462 4.96422 19.8156 0.577518 29.2972L10.8401 34.0452C14.2347 26.7079 19.8424 20.6182 26.8755 16.6315C33.9086 12.6447 42.0139 10.961 50.0529 11.817C58.092 12.673 65.661 16.0256 71.6969 21.404C77.7328 26.7823 81.9325 33.9163 83.706 41.8038C85.4795 49.6914 84.7378 57.9364 81.5851 65.3808C78.4323 72.8252 73.0269 79.0951 66.128 83.3099C59.2291 87.5247 51.1833 89.4726 43.1205 88.8801C35.0577 88.2876 27.3831 85.1844 21.1744 80.0064L13.932 88.6904Z" fill="#D9D9D9"/>
</svg>
