<svg xmlns="http://www.w3.org/2000/svg" width="26" height="26" viewBox="0 0 26 26" fill="none">
    <path
        d="M3.71429 17.6429V16.7143H1.85714V17.6429C1.85714 19.3668 2.54196 21.0201 3.76095 22.239C4.97994 23.458 6.63324 24.1429 8.35714 24.1429H11.1429V22.2857H8.35714C7.12578 22.2857 5.94485 21.7966 5.07415 20.9259C4.20344 20.0551 3.71429 18.8742 3.71429 17.6429ZM20.4286 8.35714V9.28572H22.2857V8.35714C22.2857 6.63324 21.6009 4.97994 20.3819 3.76095C19.1629 2.54196 17.5096 1.85714 15.7857 1.85714H13V3.71429H15.7857C16.3954 3.71429 16.9992 3.83438 17.5625 4.0677C18.1258 4.30103 18.6376 4.64302 19.0687 5.07415C19.4998 5.50528 19.8418 6.0171 20.0752 6.5804C20.3085 7.1437 20.4286 7.74744 20.4286 8.35714ZM8.35714 8.35714H2.78571C2.0469 8.35714 1.33834 8.65064 0.815917 9.17306C0.293494 9.69548 0 10.404 0 11.1429V13H1.85714V11.1429C1.85714 10.8966 1.95497 10.6604 2.12912 10.4863C2.30326 10.3121 2.53944 10.2143 2.78571 10.2143H8.35714C8.60342 10.2143 8.8396 10.3121 9.01374 10.4863C9.18788 10.6604 9.28571 10.8966 9.28571 11.1429V13H11.1429V11.1429C11.1429 10.404 10.8494 9.69548 10.3269 9.17306C9.80452 8.65064 9.09596 8.35714 8.35714 8.35714ZM5.57143 7.42857C6.30604 7.42857 7.02416 7.21073 7.63497 6.8026C8.24579 6.39447 8.72186 5.81438 9.00298 5.13568C9.28411 4.45699 9.35766 3.71017 9.21434 2.98967C9.07103 2.26917 8.71728 1.60734 8.19783 1.08789C7.67837 0.568438 7.01655 0.214687 6.29605 0.0713706C5.57555 -0.0719459 4.82873 0.00160933 4.15003 0.282735C3.47134 0.56386 2.89124 1.03993 2.48311 1.65074C2.07498 2.26155 1.85714 2.97967 1.85714 3.71429C1.85714 4.69938 2.24847 5.64412 2.94503 6.34068C3.6416 7.03725 4.58634 7.42857 5.57143 7.42857ZM5.57143 1.85714C5.93874 1.85714 6.2978 1.96606 6.6032 2.17013C6.90861 2.37419 7.14664 2.66424 7.2872 3.00359C7.42777 3.34294 7.46455 3.71635 7.39289 4.0766C7.32123 4.43685 7.14435 4.76776 6.88463 5.02749C6.6249 5.28721 6.29399 5.46409 5.93374 5.53575C5.57349 5.6074 5.20008 5.57063 4.86073 5.43006C4.52138 5.2895 4.23134 5.05147 4.02727 4.74606C3.82321 4.44065 3.71429 4.0816 3.71429 3.71429C3.71429 3.22174 3.90995 2.74937 4.25823 2.40109C4.60651 2.05281 5.07888 1.85714 5.57143 1.85714ZM23.2143 21.3571H17.6429C16.904 21.3571 16.1955 21.6506 15.6731 22.1731C15.1506 22.6955 14.8571 23.404 14.8571 24.1429V26H16.7143V24.1429C16.7143 23.8966 16.8121 23.6604 16.9863 23.4863C17.1604 23.3121 17.3966 23.2143 17.6429 23.2143H23.2143C23.4606 23.2143 23.6967 23.3121 23.8709 23.4863C24.045 23.6604 24.1429 23.8966 24.1429 24.1429V26H26V24.1429C26 23.404 25.7065 22.6955 25.1841 22.1731C24.6617 21.6506 23.9531 21.3571 23.2143 21.3571ZM16.7143 16.7143C16.7143 17.4489 16.9321 18.167 17.3403 18.7778C17.7484 19.3886 18.3285 19.8647 19.0072 20.1458C19.6859 20.427 20.4327 20.5005 21.1532 20.3572C21.8737 20.2139 22.5355 19.8601 23.055 19.3407C23.5744 18.8212 23.9282 18.1594 24.0715 17.4389C24.2148 16.7184 24.1412 15.9716 23.8601 15.2929C23.579 14.6142 23.1029 14.0341 22.4921 13.626C21.8813 13.2178 21.1632 13 20.4286 13C19.4435 13 18.4987 13.3913 17.8022 14.0879C17.1056 14.7845 16.7143 15.7292 16.7143 16.7143ZM22.2857 16.7143C22.2857 17.0816 22.1768 17.4407 21.9727 17.7461C21.7687 18.0515 21.4786 18.2895 21.1393 18.4301C20.7999 18.5706 20.4265 18.6074 20.0663 18.5357C19.706 18.4641 19.3751 18.2872 19.1154 18.0275C18.8556 17.7678 18.6788 17.4368 18.6071 17.0766C18.5355 16.7163 18.5722 16.3429 18.7128 16.0036C18.8534 15.6642 19.0914 15.3742 19.3968 15.1701C19.7022 14.9661 20.0613 14.8571 20.4286 14.8571C20.9211 14.8571 21.3935 15.0528 21.7418 15.4011C22.09 15.7494 22.2857 16.2217 22.2857 16.7143Z"
        fill="white" />
</svg>